<svg xmlns="http://www.w3.org/2000/svg" width="20" height="20" fill="none" viewBox="0 0 20 20">
  <path fill="#828282" d="M10 0C4.478 0 0 4.59 0 10.253c0 4.53 2.865 8.374 6.839 9.73.5.094.683-.223.683-.494 0-.244-.01-1.052-.014-1.909-2.782.62-3.369-1.21-3.369-1.21-.455-1.185-1.11-1.5-1.11-1.5-.907-.636.068-.623.068-.623 1.005.072 1.533 1.056 1.533 1.056.892 1.568 2.34 1.115 2.91.853.09-.663.35-1.115.635-1.371-2.221-.26-4.556-1.139-4.556-5.067 0-1.12.39-2.035 1.03-2.753-.103-.258-.446-1.3.097-2.713 0 0 .84-.276 2.751 1.051A9.363 9.363 0 0 1 10 4.958c.85.004 1.706.118 2.505.345 1.909-1.327 2.747-1.051 2.747-1.051.545 1.412.202 2.455.098 2.713.642.718 1.03 1.633 1.03 2.753 0 3.938-2.34 4.805-4.566 5.059.358.318.678.942.678 1.898 0 1.372-.012 2.476-.012 2.814 0 .273.18.593.687.492 3.971-1.357 6.833-5.2 6.833-9.728C20 4.59 15.523 0 10 0Z"/>
  <path fill="#828282" d="M3.787 14.721c-.022.051-.1.066-.171.031-.073-.033-.113-.103-.09-.154.022-.052.1-.067.172-.032.073.034.115.104.09.155Zm.406.463c-.048.046-.141.025-.205-.047-.065-.071-.077-.167-.029-.213.05-.045.14-.024.205.047.066.073.078.168.029.213Zm.394.591c-.061.044-.161.003-.223-.088-.062-.092-.062-.201.001-.245.062-.044.16-.004.224.086.06.093.06.202-.002.247Zm.54.57c-.055.062-.171.046-.257-.039-.087-.082-.112-.2-.057-.262.056-.062.173-.045.26.04.086.082.113.2.054.261Zm.745.332c-.024.08-.136.117-.25.082-.113-.035-.187-.129-.164-.21.024-.08.137-.119.25-.082.114.035.188.128.164.21Zm.818.061c.003.085-.093.155-.212.156-.12.003-.216-.065-.217-.149 0-.085.094-.154.213-.156.12-.003.216.065.216.15Zm.762-.133c.014.083-.068.168-.186.19-.116.022-.224-.029-.239-.11-.014-.085.07-.17.186-.192.118-.021.224.029.24.112Z"/>
</svg>
