<svg width="20" height="20" viewBox="0 0 20 20" fill="none" xmlns="http://www.w3.org/2000/svg">
<path fill-rule="evenodd" clip-rule="evenodd" d="M10 0C4.47715 0 0 4.47715 0 10C0 15.5228 4.47715 20 10 20C15.5228 20 20 15.5228 20 10C20 4.47715 15.5228 0 10 0ZM4.80067 8.28242H7.06689V15.0915H4.80067V8.28242ZM7.21615 6.17612C7.20144 5.5085 6.72402 5 5.94876 5C5.1735 5 4.66666 5.5085 4.66666 6.17612C4.66666 6.82992 5.15852 7.35306 5.91934 7.35306H5.93383C6.72402 7.35306 7.21615 6.82992 7.21615 6.17612ZM12.6305 8.12256C14.1217 8.12256 15.2397 9.09595 15.2397 11.1874L15.2397 15.0915H12.9735V11.4487C12.9735 10.5336 12.6456 9.90927 11.8252 9.90927C11.1991 9.90927 10.8262 10.3302 10.6624 10.7367C10.6025 10.8824 10.5878 11.0854 10.5878 11.2889V15.0917H8.32129C8.32129 15.0917 8.35116 8.92155 8.32129 8.28263H10.5878V9.24707C10.8886 8.78345 11.4273 8.12256 12.6305 8.12256Z" fill="#828282"/>
</svg>
