<?xml version="1.0" encoding="UTF-8"?>
<svg id="Calque_1" xmlns="http://www.w3.org/2000/svg" version="1.1" viewBox="0 0 402.13 138.89">
  <!-- Generator: Adobe Illustrator 29.6.0, SVG Export Plug-In . SVG Version: 2.1.1 Build 207)  -->
  <defs>
    <style>
      .st0 {
        fill: #82368c;
      }
    </style>
  </defs>
  <path class="st0" d="M165.07,101.05c-2.23,0-4.22-1.18-6-3.55-1.77-2.36-3.32-5.2-4.64-8.5-1.32-3.3-2.42-6.69-3.29-10.17-.87-3.48-1.51-6.36-1.93-8.66-.56,1.39-1.3,3.1-2.24,5.11-.94,2.02-2.02,4.14-3.23,6.36-1.22,2.23-2.52,4.47-3.91,6.73-1.39,2.26-2.83,4.29-4.33,6.1-1.5,1.81-2.99,3.27-4.49,4.38-1.5,1.11-2.94,1.67-4.33,1.67-1.88,0-3.53-.9-4.95-2.71-1.43-1.81-2.63-4.17-3.6-7.09-.97-2.92-1.79-6.15-2.45-9.7-.66-3.55-1.17-7.09-1.51-10.64-.35-3.55-.59-6.85-.73-9.91-.14-3.06-.21-5.53-.21-7.41,0-1.74.09-3.41.26-5.01.17-1.6.52-3.02,1.04-4.28s1.29-2.24,2.29-2.97c1.01-.73,2.35-1.1,4.02-1.1s2.97.59,4.12,1.77c1.15,1.18,2.1,2.73,2.87,4.64.76,1.91,1.39,4.07,1.88,6.47.49,2.4.87,4.83,1.15,7.3.28,2.47.47,4.87.57,7.2.1,2.33.19,4.33.26,6,.42-1.46,1.01-3.25,1.77-5.37.76-2.12,1.6-4.38,2.5-6.78.9-2.4,1.89-4.78,2.97-7.15,1.08-2.36,2.15-4.48,3.23-6.36,1.08-1.88,2.14-3.41,3.18-4.59,1.04-1.18,2.05-1.77,3.03-1.77h.1c1.25,0,2.47.59,3.65,1.77,1.18,1.18,2.33,2.71,3.44,4.59,1.11,1.88,2.16,4.02,3.13,6.41.97,2.4,1.88,4.83,2.71,7.3.83,2.47,1.56,4.87,2.19,7.2.63,2.33,1.15,4.33,1.57,6,.07-2.02.17-4.29.31-6.83.14-2.54.4-5.09.78-7.67.38-2.57.9-5.08,1.56-7.51.66-2.43,1.48-4.61,2.45-6.52.97-1.91,2.17-3.44,3.6-4.59,1.42-1.15,3.08-1.72,4.95-1.72s3.39.68,4.33,2.03,1.41,3.01,1.41,4.95c0,2.09-.26,4.87-.78,8.34-.52,3.48-1.24,7.25-2.14,11.32-.9,4.07-1.96,8.17-3.18,12.31-1.22,4.14-2.56,7.87-4.02,11.21-1.46,3.34-2.99,6.07-4.59,8.19-1.6,2.12-3.2,3.18-4.8,3.18Z"/>
  <path class="st0" d="M300.82,99.69l1.61-23.16.52-13.3c.03-2.4.05-4.85.05-7.35s-.04-5.68-.1-9.44c4.21.07,7.55.1,10.01.1,2.89,0,6.21-.03,9.96-.1l-.22,5.89c1.36-1.53,2.47-2.67,3.34-3.42.87-.75,1.86-1.43,2.97-2.03,1.11-.61,2.28-1.06,3.5-1.36,1.22-.29,2.49-.44,3.81-.44,1.25,0,2.64.17,4.17.52.03,3.79.12,6.92.26,9.39l.37,8.03c-1.91-.56-3.7-.83-5.37-.83-2.08,0-3.88.3-5.39.91-1.51.61-2.85,1.53-4.01,2.76-1.16,1.23-2.09,2.77-2.79,4.62-.7,1.84-1.18,4.76-1.46,8.76-.28,4-.42,8.57-.42,13.72,0,1.81.07,4.05.21,6.73-3.38-.07-6.77-.1-10.18-.1s-6.99.04-10.86.1Z"/>
  <path class="st0" d="M355.11,65.74c-3.69,3.79-5.53,9.18-5.53,16.17,0,5.84,1.84,11.18,5.53,16.01-6.57-4.07-9.86-9.61-9.86-16.64,0-7.61,3.29-12.79,9.86-15.54ZM384.11,36.64v63.05c-1.98.07-3.41.17-4.28.31.1-1.11.16-2.19.16-3.23-3.37,2.61-6.95,3.91-10.74,3.91-5.18,0-9.14-1.84-11.89-5.53-2.82-3.72-4.22-8.12-4.22-13.19,0-5.35,1.42-10.03,4.28-14.03,2.85-4,7.41-6,13.66-6,3.41,0,6.5.77,9.28,2.29v-16.9c0-3.16-.47-5.55-1.41-7.15-1.01-1.6-2.76-2.68-5.27-3.23v-.89c3.44.24,6.92.44,10.43.57ZM380.35,81.86v-14.08c-3.06-1.77-6.14-2.66-9.23-2.66-4.38,0-7.77,1.48-10.17,4.43-2.4,2.96-3.6,6.95-3.6,11.99,0,4.56,1.11,8.31,3.34,11.27,2.19,3.02,5.09,4.54,8.71,4.54s7.27-1.51,10.64-4.54c.21-3.23.31-6.88.31-10.95ZM389.48,99.69h-1.83v-63.05c1.11,0,2.59-.09,4.43-.26-.42,6.29-.63,12.59-.63,18.88v32.33c0,2.96.17,5.08.52,6.36.38,1.39,1.17,2.57,2.35,3.55,1.22,1.04,2.68,1.67,4.38,1.88v.94c-3.79-.42-6.87-.63-9.23-.63Z"/>
  <path class="st0" d="M213.2,95.61c-7.55-3.33-12.83-7.92-15.84-13.75-3.27-6.43-3.24-13.4.07-20.91,3.83-8.68,9.15-15.03,15.95-19.06,7.4-4.39,14.93-4.9,22.58-1.53,5.54,2.45,9.66,5.38,12.34,8.8,3.29,4.21,3.88,8.7,1.77,13.47-1.47,3.34-4.7,5.54-9.68,6.62-2.2.46-6.57.77-13.1.92l-23.14.62c.65,3.6,2.05,6.71,4.22,9.35,2.17,2.63,5.11,4.77,8.81,6.4,2.3,1.02,5.2,1.78,8.69,2.28,4.43.64,7.6.31,9.53-.97,1.92-1.28,3.54-1.64,4.84-1.07,1.17.52,2.02,1.42,2.54,2.71.53,1.29.53,2.52.02,3.69-1.64,3.71-6.03,5.58-13.19,5.61-6.11.02-11.59-1.04-16.43-3.18ZM231.99,49.37c-4.07-1.8-8.16-1.72-12.26.25-4.1,1.96-8.22,5.82-12.35,11.58l18.61-.53c7.34-.27,12.78-.92,16.31-1.96-1.69-3.94-5.13-7.05-10.3-9.34Z"/>
  <path class="st0" d="M272.69,49.45c7.48,3.49,12.66,8.18,15.55,14.08,3.13,6.5,2.96,13.47-.51,20.91-4.01,8.6-9.46,14.84-16.34,18.72-7.49,4.24-15.03,4.59-22.61,1.06-5.49-2.56-9.54-5.58-12.15-9.05-3.2-4.27-3.7-8.78-1.49-13.51,1.54-3.31,4.82-5.45,9.82-6.42,2.21-.42,6.58-.64,13.11-.65l23.15-.14c-.57-3.61-1.92-6.75-4.03-9.43-2.11-2.68-5.01-4.87-8.68-6.59-2.28-1.07-5.16-1.89-8.64-2.46-4.41-.73-7.59-.47-9.54.77-1.95,1.24-3.57,1.57-4.86.96-1.16-.54-1.99-1.46-2.49-2.76-.5-1.3-.48-2.53.06-3.69,1.71-3.67,6.15-5.45,13.3-5.33,6.11.11,11.57,1.29,16.36,3.52ZM252.95,95.28c4.04,1.88,8.12,1.89,12.26,0s8.33-5.65,12.59-11.32l-18.61.14c-7.35.12-12.79.66-16.34,1.62,1.61,3.97,4.98,7.16,10.11,9.55Z"/>
  <path class="st0" d="M7.78,98.26l1.61-23.16.52-13.3c.03-2.4.05-4.85.05-7.35s-.03-5.68-.1-9.44c4.21.07,7.54.1,10.01.1,2.89,0,6.21-.03,9.96-.1l-.22,5.89c1.36-1.53,2.47-2.67,3.34-3.42.87-.75,1.86-1.43,2.97-2.03,1.11-.61,2.28-1.06,3.5-1.36,1.22-.29,2.49-.44,3.81-.44,1.25,0,2.64.17,4.17.52.03,3.79.12,6.92.26,9.39l.37,8.03c-1.91-.56-3.7-.83-5.37-.83-2.08,0-3.88.3-5.39.91-1.51.61-2.85,1.53-4.01,2.76-1.16,1.23-2.09,2.77-2.79,4.62-.69,1.84-1.18,4.76-1.46,8.76-.28,4-.42,8.57-.42,13.72,0,1.81.07,4.05.21,6.73-3.38-.07-6.77-.1-10.18-.1s-6.99.04-10.86.1Z"/>
  <path class="st0" d="M70.75,95.29c-7.38-3.69-12.43-8.53-15.15-14.5-2.95-6.58-2.59-13.54,1.09-20.89,4.25-8.49,9.87-14.57,16.86-18.26,7.61-4.03,15.15-4.17,22.63-.43,5.42,2.71,9.38,5.84,11.9,9.38,3.08,4.36,3.46,8.87,1.12,13.54-1.63,3.26-4.97,5.31-9.99,6.14-2.22.36-6.6.45-13.13.29l-23.14-.5c.47,3.62,1.73,6.81,3.77,9.54,2.04,2.74,4.87,5.01,8.49,6.82,2.25,1.13,5.11,2.03,8.57,2.7,4.39.85,7.58.68,9.56-.51,1.98-1.19,3.61-1.47,4.89-.83,1.14.57,1.95,1.52,2.41,2.83.46,1.31.41,2.54-.16,3.68-1.81,3.62-6.3,5.28-13.45,4.96-6.1-.28-11.53-1.61-16.26-3.97ZM91.76,50.02c-3.98-1.99-8.07-2.11-12.26-.35-4.19,1.76-8.49,5.42-12.9,10.96l18.61.38c7.35.09,12.81-.3,16.38-1.17-1.5-4.02-4.78-7.29-9.84-9.82Z"/>
</svg>