<svg width="20" height="20" viewBox="0 0 20 20" fill="none" xmlns="http://www.w3.org/2000/svg">
<path fill-rule="evenodd" clip-rule="evenodd" d="M10 20C4.47715 20 0 15.5228 0 10C0 4.47715 4.47715 0 10 0C15.5228 0 20 4.47715 20 10C20 15.5228 15.5228 20 10 20ZM10.1393 9.43877C10.9581 9.43877 14.9393 7.20001 14.9393 7.20001L14.9457 6.80001C14.9457 6.35841 14.5873 6.00001 14.1445 6.00001H6.13413C5.69173 6.00001 5.33333 6.35841 5.33333 6.80001V7.15641C5.33333 7.15641 9.35813 9.43877 10.1393 9.43877ZM5.33973 8.40004C5.33933 8.40004 9.35813 10.5388 10.1393 10.5388C10.9957 10.5388 14.9393 8.40004 14.9393 8.40004L14.9457 13.2C14.9457 13.6416 14.5873 14 14.1445 14H6.13413C5.69213 14 5.33333 13.6416 5.33333 13.2L5.33973 8.40004Z" fill="#828282"/>
</svg>
